<svg id="Layer_1" data-name="Layer 1" xmlns="http://www.w3.org/2000/svg" xmlns:xlink="http://www.w3.org/1999/xlink" viewBox="0 0 214.9 28"><defs><style>.cls-1{fill:#eee;}.cls-2{fill:url(#linear-gradient);}.cls-3{fill:url(#linear-gradient-2);}.cls-4{fill:url(#linear-gradient-3);}.cls-5{fill:url(#linear-gradient-4);}</style><linearGradient id="linear-gradient" x1="122.96" y1="27.3" x2="122.96" y2="0.5" gradientUnits="userSpaceOnUse"><stop offset="0" stop-color="#e5faff"/><stop offset="1" stop-color="#bbf1ff"/></linearGradient><linearGradient id="linear-gradient-2" x1="148.6" y1="27.5" x2="148.6" y2="0.7" xlink:href="#linear-gradient"/><linearGradient id="linear-gradient-3" x1="175.6" y1="27.3" x2="175.6" y2="0.7" xlink:href="#linear-gradient"/><linearGradient id="linear-gradient-4" x1="201.7" y1="27.5" x2="201.7" y2="0.7" xlink:href="#linear-gradient"/></defs><path class="cls-1" d="M26.3.7H22a.76.76,0,0,0-.5.2.76.76,0,0,0-.2.5V17.7c-.7-.7-1.5-1.6-2.5-2.7s-2.1-2.2-3.2-3.5L12.2,7.8C11,6.5,10,5.4,9.1,4.4S7.5,2.5,6.9,1.9A10.52,10.52,0,0,1,6,.9,1.42,1.42,0,0,0,5.4.7H1.1A.76.76,0,0,0,.6.9a.76.76,0,0,0-.2.5V26.7a.76.76,0,0,0,.2.5.76.76,0,0,0,.5.2H5.4a.68.68,0,0,0,.7-.7V10.3L21.5,27.1a.76.76,0,0,0,.5.2h4.3a.68.68,0,0,0,.7-.7V1.4a.86.86,0,0,0-.3-.6A.6.6,0,0,0,26.3.7Z"/><path class="cls-1" d="M37.8.7H29.3a.76.76,0,0,0-.5.2.76.76,0,0,0-.2.5V5.9a.68.68,0,0,0,.7.7h1.3V21.4H29.3a.68.68,0,0,0-.7.7v4.5a.68.68,0,0,0,.7.7h8.5a.68.68,0,0,0,.7-.7V22.1a.76.76,0,0,0-.2-.5,1.69,1.69,0,0,0-.5-.2H36.5V6.6h1.3a.68.68,0,0,0,.7-.7V1.4a.76.76,0,0,0-.2-.5A.76.76,0,0,0,37.8.7Z"/><path class="cls-1" d="M61.3.7H42.2a.76.76,0,0,0-.5.2.76.76,0,0,0-.2.5V26.5a.68.68,0,0,0,.7.7h4.3a.68.68,0,0,0,.7-.7V16.8H59.1a.68.68,0,0,0,.7-.7V11.8a.68.68,0,0,0-.7-.7H47.2V6.4H61.3a.68.68,0,0,0,.7-.7V1.4a1.42,1.42,0,0,0-.2-.6A.75.75,0,0,0,61.3.7Z"/><path class="cls-1" d="M86.3.7H64.9a.76.76,0,0,0-.5.2.76.76,0,0,0-.2.5V5.8a.68.68,0,0,0,.7.7h7.8V26.6a.68.68,0,0,0,.7.7h4.3c.2,0,.4,0,.5-.2a.76.76,0,0,0,.2-.5V6.4h7.7a.68.68,0,0,0,.7-.7V1.4a.76.76,0,0,0-.2-.5C86.4.7,86.3.7,86.3.7Z"/><path class="cls-1" d="M113.2,1a1.61,1.61,0,0,0-.7-.4h-5.2a.71.71,0,0,0-.6.3l-6.3,9.5L94,.9a.6.6,0,0,0-.6-.3H88.3a1,1,0,0,0-.7.4.6.6,0,0,0,0,.8l9.9,14.6V26.6c0,.2,0,.4.2.5a.76.76,0,0,0,.5.2h4.5a.68.68,0,0,0,.7-.7V16.4l9.8-14.6A1.1,1.1,0,0,0,113.2,1Z"/><path class="cls-2" d="M131.1,19.1a.72.72,0,0,0-1,0,7.76,7.76,0,0,1-2.4,1.6,7.31,7.31,0,0,1-5.8,0,7.35,7.35,0,0,1-4-4,7.31,7.31,0,0,1,0-5.8,7.35,7.35,0,0,1,4-4,7.31,7.31,0,0,1,5.8,0,6.33,6.33,0,0,1,2.4,1.6.73.73,0,0,0,1,0l2.9-3a.35.35,0,0,0,.2-.1.67.67,0,0,0,0-1A13.08,13.08,0,0,0,124.8.5a13.1,13.1,0,0,0-5.2,1.1,14.17,14.17,0,0,0-7.1,7.1,13.1,13.1,0,0,0-1.1,5.2,12.74,12.74,0,0,0,1.1,5.2,14.17,14.17,0,0,0,7.1,7.1,13.1,13.1,0,0,0,5.2,1.1,12.88,12.88,0,0,0,5.1-1,13,13,0,0,0,4.4-2.9.67.67,0,0,0,0-1Z"/><path class="cls-3" d="M158.2,4.7a14.17,14.17,0,0,0-4.3-2.9A13.59,13.59,0,0,0,148.6.7a11.72,11.72,0,0,0-5.3,1.1A14.17,14.17,0,0,0,139,4.7a13.71,13.71,0,0,0-2.9,4.2,13.1,13.1,0,0,0-1.1,5.2,12.74,12.74,0,0,0,1.1,5.2,13.71,13.71,0,0,0,2.9,4.2,13,13,0,0,0,4.3,2.9,13.59,13.59,0,0,0,5.3,1.1,13.22,13.22,0,0,0,5.3-1.1,14.17,14.17,0,0,0,4.3-2.9,13.71,13.71,0,0,0,2.9-4.2,13.1,13.1,0,0,0,1.1-5.2,12.74,12.74,0,0,0-1.1-5.2A13.71,13.71,0,0,0,158.2,4.7Zm-2.5,12.2a8.07,8.07,0,0,1-1.7,2.4,8.21,8.21,0,0,1-2.5,1.6,8,8,0,0,1-3,.6,7.31,7.31,0,0,1-3-.6,7.76,7.76,0,0,1-2.4-1.6,8.07,8.07,0,0,1-1.7-2.4,7.31,7.31,0,0,1,0-5.8,8.07,8.07,0,0,1,1.7-2.4,7.76,7.76,0,0,1,2.4-1.6,7.8,7.8,0,0,1,6,0A7.16,7.16,0,0,1,154,8.7a8.07,8.07,0,0,1,1.7,2.4,7.31,7.31,0,0,1,0,5.8Z"/><path class="cls-4" d="M182.7,17.5a8.33,8.33,0,0,0,2.2-2,8.41,8.41,0,0,0,1.5-2.6,9.43,9.43,0,0,0,.5-3,8.57,8.57,0,0,0-.7-3.6,8.37,8.37,0,0,0-2-2.9,9.85,9.85,0,0,0-3-2,8.57,8.57,0,0,0-3.6-.7H165c-.2,0-.3.1-.5.2a.76.76,0,0,0-.2.5V26.5a.55.55,0,0,0,.2.5.76.76,0,0,0,.5.2h4.3c.2,0,.4,0,.5-.2a.76.76,0,0,0,.2-.5V19h1.3l8.2,8.1c.2.1.3.2.5.2h6.1c.1,0,.2-.1.3-.1a.67.67,0,0,0,.4-.7.76.76,0,0,0-.2-.5l-7.3-7.2a2,2,0,0,0,.5-.1A7.44,7.44,0,0,0,182.7,17.5Zm-3.8-4.6a2.77,2.77,0,0,1-1.3.3H170V6.4h7.5a3.19,3.19,0,0,1,1.4.3,4.13,4.13,0,0,1,1.1.7,4.13,4.13,0,0,1,.7,1.1,2.77,2.77,0,0,1,.3,1.3,3.08,3.08,0,0,1-.3,1.3,4.13,4.13,0,0,1-.7,1.1A4.13,4.13,0,0,1,178.9,12.9Z"/><path class="cls-5" d="M213,8.9a14.17,14.17,0,0,0-7.1-7.1A12.74,12.74,0,0,0,200.7.7H190a.76.76,0,0,0-.5.2.76.76,0,0,0-.2.5V26.8a.68.68,0,0,0,.7.7h10.7a13.1,13.1,0,0,0,5.2-1.1,14.17,14.17,0,0,0,7.1-7.1,13.1,13.1,0,0,0,1.1-5.2A12.74,12.74,0,0,0,213,8.9ZM207.7,17a7.35,7.35,0,0,1-4,4,7.17,7.17,0,0,1-2.9.6v.1H195V6.6h5.8a7.17,7.17,0,0,1,2.9.6,7.35,7.35,0,0,1,4,4,7.31,7.31,0,0,1,0,5.8Z"/></svg>