<?xml version="1.0" encoding="utf-8"?>
<!-- Generator: Adobe Illustrator 25.2.2, SVG Export Plug-In . SVG Version: 6.00 Build 0)  -->
<svg version="1.1" id="Layer_1" xmlns="http://www.w3.org/2000/svg" xmlns:xlink="http://www.w3.org/1999/xlink" x="0px" y="0px"
	 viewBox="0 0 214.9 28" style="enable-background:new 0 0 214.9 28;" xml:space="preserve">
<style type="text/css">
	.st0{fill:#EEEEEE;}
	.st1{fill:url(#SVGID_1_);}
	.st2{fill:url(#SVGID_2_);}
	.st3{fill:url(#SVGID_3_);}
	.st4{fill:url(#SVGID_4_);}
</style>
<g>
	<g>
		<path class="st0" d="M26.3,0.7H22c-0.2,0-0.4,0.1-0.5,0.2c-0.1,0.1-0.2,0.3-0.2,0.5v16.3c-0.7-0.7-1.5-1.6-2.5-2.7
			s-2.1-2.2-3.2-3.5c-1.1-1.2-2.3-2.5-3.4-3.7C11,6.5,10,5.4,9.1,4.4c-0.9-1-1.6-1.9-2.2-2.5C6.3,1.3,6,0.9,6,0.9
			C5.8,0.8,5.6,0.7,5.4,0.7H1.1c-0.2,0-0.4,0.1-0.5,0.2C0.5,1,0.4,1.2,0.4,1.4v25.3c0,0.2,0.1,0.4,0.2,0.5c0.1,0.1,0.3,0.2,0.5,0.2
			h4.3c0.2,0,0.4-0.1,0.5-0.2c0.1-0.1,0.2-0.3,0.2-0.5V10.3l15.4,16.8c0.1,0.1,0.3,0.2,0.5,0.2h4.3c0.2,0,0.4-0.1,0.5-0.2
			c0.1-0.1,0.2-0.3,0.2-0.5V1.4c0-0.2-0.1-0.4-0.3-0.6C26.6,0.7,26.4,0.7,26.3,0.7z"/>
		<path class="st0" d="M37.8,0.7h-8.5c-0.2,0-0.4,0.1-0.5,0.2c-0.1,0.1-0.2,0.3-0.2,0.5v4.5c0,0.2,0.1,0.4,0.2,0.5
			c0.1,0.1,0.3,0.2,0.5,0.2h1.3v14.8h-1.3c-0.2,0-0.4,0.1-0.5,0.2c-0.1,0.1-0.2,0.3-0.2,0.5v4.5c0,0.2,0.1,0.4,0.2,0.5
			c0.1,0.1,0.3,0.2,0.5,0.2h8.5c0.2,0,0.4-0.1,0.5-0.2c0.1-0.1,0.2-0.3,0.2-0.5v-4.5c0-0.2-0.1-0.4-0.2-0.5
			c-0.2-0.1-0.4-0.2-0.5-0.2h-1.3V6.6h1.3c0.2,0,0.4-0.1,0.5-0.2c0.1-0.1,0.2-0.3,0.2-0.5V1.4c0-0.2-0.1-0.4-0.2-0.5
			C38.2,0.8,38,0.7,37.8,0.7z"/>
		<path class="st0" d="M61.3,0.7H42.2c-0.2,0-0.4,0.1-0.5,0.2c-0.1,0.1-0.2,0.3-0.2,0.5v25.1c0,0.2,0.1,0.4,0.2,0.5
			c0.1,0.1,0.3,0.2,0.5,0.2h4.3c0.2,0,0.4-0.1,0.5-0.2s0.2-0.3,0.2-0.5v-9.7h11.9c0.2,0,0.4-0.1,0.5-0.2c0.1-0.1,0.2-0.3,0.2-0.5
			v-4.3c0-0.2-0.1-0.4-0.2-0.5c-0.1-0.1-0.3-0.2-0.5-0.2H47.2V6.4h14.1c0.2,0,0.4-0.1,0.5-0.2C61.9,6.1,62,5.9,62,5.7V1.4
			c0-0.2-0.1-0.4-0.2-0.6C61.7,0.7,61.5,0.7,61.3,0.7z"/>
		<path class="st0" d="M86.3,0.7H64.9c-0.2,0-0.4,0.1-0.5,0.2c-0.1,0.1-0.2,0.3-0.2,0.5v4.4c0,0.2,0.1,0.4,0.2,0.5
			c0.1,0.1,0.3,0.2,0.5,0.2h7.8v20.1c0,0.2,0.1,0.4,0.2,0.5c0.1,0.1,0.3,0.2,0.5,0.2h4.3c0.2,0,0.4,0,0.5-0.2
			c0.1-0.1,0.2-0.3,0.2-0.5V6.4h7.7c0.2,0,0.4-0.1,0.5-0.2c0.1-0.1,0.2-0.3,0.2-0.5V1.4c0-0.2-0.1-0.4-0.2-0.5
			C86.4,0.7,86.3,0.7,86.3,0.7z"/>
		<path class="st0" d="M113.2,1c-0.2-0.2-0.4-0.3-0.7-0.4h-5.2c-0.2,0-0.5,0.1-0.6,0.3l-6.3,9.5L94,0.9c-0.1-0.2-0.3-0.3-0.6-0.3
			h-5.1c-0.3,0-0.5,0.2-0.7,0.4c-0.2,0.3-0.2,0.6,0,0.8l9.9,14.6v10.2c0,0.2,0,0.4,0.2,0.5c0.1,0.1,0.3,0.2,0.5,0.2h4.5
			c0.2,0,0.4-0.1,0.5-0.2c0.1-0.1,0.2-0.3,0.2-0.5V16.4l9.8-14.6C113.3,1.5,113.3,1.3,113.2,1z"/>
	</g>
	<g>
		<linearGradient id="SVGID_1_" gradientUnits="userSpaceOnUse" x1="122.9625" y1="27.3" x2="122.9625" y2="0.5">
			<stop  offset="0" style="stop-color:#E5FAFF"/>
			<stop  offset="1" style="stop-color:#BBF1FF"/>
		</linearGradient>
		<path class="st1" d="M131.1,19.1c-0.1-0.1-0.3-0.2-0.5-0.2s-0.4,0.1-0.5,0.2c-0.7,0.7-1.5,1.2-2.4,1.6c-0.9,0.4-1.9,0.6-2.9,0.6
			s-2-0.2-2.9-0.6c-0.9-0.4-1.7-0.9-2.4-1.6c-0.7-0.7-1.2-1.5-1.6-2.4c-0.4-0.9-0.6-1.9-0.6-2.9s0.2-2,0.6-2.9
			c0.4-0.9,0.9-1.7,1.6-2.4c0.7-0.7,1.5-1.2,2.4-1.6c0.9-0.4,1.9-0.6,2.9-0.6s2,0.2,2.9,0.6c0.9,0.3,1.7,0.9,2.4,1.6
			c0.1,0.1,0.3,0.2,0.5,0.2s0.4-0.1,0.5-0.2l2.9-3c0.1,0,0.2-0.1,0.2-0.1c0.3-0.3,0.3-0.7,0-1c-1.2-1.3-2.7-2.2-4.3-2.9
			s-3.3-1-5.1-1c-1.8,0-3.6,0.4-5.2,1.1c-1.6,0.7-3,1.7-4.2,2.9s-2.2,2.6-2.9,4.2c-0.7,1.6-1.1,3.4-1.1,5.2c0,1.9,0.4,3.6,1.1,5.2
			c0.7,1.6,1.7,3,2.9,4.2s2.6,2.2,4.2,2.9c1.6,0.7,3.4,1.1,5.2,1.1c1.8,0,3.4-0.3,5.1-1s3.1-1.6,4.4-2.9c0.3-0.3,0.3-0.7,0-1
			L131.1,19.1z"/>
		<linearGradient id="SVGID_2_" gradientUnits="userSpaceOnUse" x1="148.6" y1="27.5" x2="148.6" y2="0.7">
			<stop  offset="0" style="stop-color:#E5FAFF"/>
			<stop  offset="1" style="stop-color:#BBF1FF"/>
		</linearGradient>
		<path class="st2" d="M158.2,4.7c-1.2-1.2-2.7-2.2-4.3-2.9c-1.7-0.7-3.4-1.1-5.3-1.1c-1.9,0-3.7,0.3-5.3,1.1
			c-1.6,0.7-3.1,1.7-4.3,2.9s-2.2,2.6-2.9,4.2c-0.7,1.6-1.1,3.4-1.1,5.2c0,1.9,0.4,3.6,1.1,5.2c0.7,1.6,1.7,3,2.9,4.2
			s2.6,2.2,4.3,2.9c1.7,0.7,3.4,1.1,5.3,1.1c1.9,0,3.7-0.4,5.3-1.1c1.6-0.7,3.1-1.7,4.3-2.9s2.2-2.6,2.9-4.2
			c0.7-1.6,1.1-3.4,1.1-5.2c0-1.9-0.4-3.6-1.1-5.2C160.4,7.3,159.4,5.9,158.2,4.7z M155.7,16.9c-0.4,0.9-1,1.7-1.7,2.4
			s-1.6,1.2-2.5,1.6c-1,0.4-2,0.6-3,0.6c-1.1,0-2.1-0.2-3-0.6c-0.9-0.4-1.7-0.9-2.4-1.6c-0.7-0.7-1.3-1.5-1.7-2.4
			c-0.4-0.9-0.6-1.9-0.6-2.9s0.2-2,0.6-2.9c0.4-0.9,1-1.7,1.7-2.4c0.7-0.7,1.5-1.2,2.4-1.6c0.9-0.4,1.9-0.6,3-0.6
			c1.1,0,2.1,0.2,3,0.6c1,0.4,1.8,0.9,2.5,1.6s1.3,1.5,1.7,2.4c0.4,0.9,0.6,1.9,0.6,2.9S156.1,16,155.7,16.9z"/>
		<linearGradient id="SVGID_3_" gradientUnits="userSpaceOnUse" x1="175.6" y1="27.3" x2="175.6" y2="0.7">
			<stop  offset="0" style="stop-color:#E5FAFF"/>
			<stop  offset="1" style="stop-color:#BBF1FF"/>
		</linearGradient>
		<path class="st3" d="M182.7,17.5c0.8-0.5,1.6-1.2,2.2-2c0.7-0.8,1.1-1.6,1.5-2.6c0.3-0.9,0.5-1.9,0.5-3c0-1.3-0.2-2.5-0.7-3.6
			c-0.5-1.1-1.1-2.1-2-2.9c-0.9-0.9-1.9-1.5-3-2c-1.1-0.5-2.3-0.7-3.6-0.7H165c-0.2,0-0.3,0.1-0.5,0.2c-0.1,0.1-0.2,0.3-0.2,0.5
			v25.1c0,0.2,0,0.3,0.2,0.5c0.1,0.1,0.3,0.2,0.5,0.2h4.3c0.2,0,0.4,0,0.5-0.2c0.1-0.1,0.2-0.3,0.2-0.5V19h1.3l8.2,8.1
			c0.2,0.1,0.3,0.2,0.5,0.2c0.1,0,0.2,0,0.2,0h5.9c0.1,0,0.2-0.1,0.3-0.1c0.3-0.1,0.4-0.4,0.4-0.7c0-0.2-0.1-0.4-0.2-0.5l-7.3-7.2
			c0.3,0,0.4-0.1,0.5-0.1C180.9,18.5,181.8,18.1,182.7,17.5z M178.9,12.9c-0.4,0.2-0.8,0.3-1.3,0.3h-0.1H170V6.4h7.5
			c0.5,0,1,0.1,1.4,0.3s0.8,0.4,1.1,0.7c0.3,0.3,0.5,0.7,0.7,1.1s0.3,0.8,0.3,1.3c0,0.4-0.1,0.9-0.3,1.3c-0.2,0.4-0.4,0.8-0.7,1.1
			C179.7,12.5,179.3,12.7,178.9,12.9z"/>
		<linearGradient id="SVGID_4_" gradientUnits="userSpaceOnUse" x1="201.7" y1="27.5" x2="201.7" y2="0.7">
			<stop  offset="0" style="stop-color:#E5FAFF"/>
			<stop  offset="1" style="stop-color:#BBF1FF"/>
		</linearGradient>
		<path class="st4" d="M213,8.9c-0.7-1.6-1.7-3-2.9-4.2c-1.2-1.2-2.6-2.2-4.2-2.9c-1.6-0.7-3.3-1.1-5.2-1.1H190
			c-0.2,0-0.4,0.1-0.5,0.2c-0.1,0.1-0.2,0.3-0.2,0.5v25.4c0,0.2,0.1,0.4,0.2,0.5c0.1,0.1,0.3,0.2,0.5,0.2h10.7
			c1.8,0,3.6-0.4,5.2-1.1c1.6-0.7,3-1.7,4.2-2.9c1.2-1.2,2.2-2.6,2.9-4.2c0.7-1.6,1.1-3.4,1.1-5.2C214.1,12.2,213.7,10.5,213,8.9z
			 M207.7,17c-0.4,0.9-0.9,1.7-1.6,2.4c-0.7,0.7-1.5,1.2-2.4,1.6c-0.9,0.4-1.9,0.6-2.9,0.6v0.1H195V6.6h5.8c1,0,2,0.2,2.9,0.6
			c0.9,0.4,1.7,0.9,2.4,1.6c0.7,0.7,1.2,1.5,1.6,2.4c0.4,0.9,0.6,1.9,0.6,2.9S208.1,16.1,207.7,17z"/>
	</g>
</g>
</svg>
